<?xml version="1.0" standalone="no"?>
<!DOCTYPE svg PUBLIC "-//W3C//DTD SVG 1.1//EN" 
"http://www.w3.org/Graphics/SVG/1.1/DTD/svg11.dtd">

<svg width="36" height="36" version="1.1"
xmlns="http://www.w3.org/2000/svg">
	<defs>
		<symbol id="oms" viewBox="0 0 110 110">
			<path d="M10,20a10,10,0,0,1,10-10h70a10,10,0,0,1,10,10v70a10,10,0,0,1-10,10h-70a10,10,0,0,1-10-10zM47.2,68.4L31.1,84.5,25.6,79,41.7,62.9ZM76.3,30.6A3.4,3.4,0,0,0,72.9,34a3.3,3.3,0,0,0,.3,1.3L44.7,63.7l1.7,1.7L74.8,37a3.2,3.2,0,0,0,1.5.4A3.4,3.4,0,1,0,76.3,30.6Zm0.9-2.9V23.8a0.8,0.8,0,0,0-.8-0.8H76.1a0.8,0.8,0,0,0-.8.8v3.9a0.8,0.8,0,0,0,.8.8h0.3A0.8,0.8,0,0,0,77.2,27.7Zm3.5,3.2,3.6-3.6a0.9,0.9,0,0,0,0-1.2H84.3a0.9,0.9,0,0,0-1.2,0l-3.6,3.6a0.9,0.9,0,0,0,0,1.2h0.1A0.9,0.9,0,0,0,80.7,30.9Zm1.8,4h3.9a0.8,0.8,0,0,0,.8-0.8V33.7a0.8,0.8,0,0,0-.8-0.8H82.6a0.8,0.8,0,0,0-.8.8V34A0.8,0.8,0,0,0,82.6,34.8Zm-16.3.1h3.9a0.8,0.8,0,0,0,.8-0.8V33.8a0.8,0.8,0,0,0-.8-0.8H66.2a0.8,0.8,0,0,0-.8.8v0.3A0.8,0.8,0,0,0,66.2,34.9Zm6.8-5.2-3.8-3.8a0.9,0.9,0,0,0-1.3,0a0.9,0.9,0,0,0,0,1.3L71.8,31A0.9,0.9,0,0,0,73,31A0.9,0.9,0,0,0,73.1,29.7ZM84.8,40.9L80.9,37a0.9,0.9,0,0,0-1.3,0a0.9,0.9,0,0,0,0,1.3l3.9,3.9a0.9,0.9,0,0,0,1.3,0A0.9,0.9,0,0,0,84.8,40.9Zm-7.6,3.2V40.2a0.8,0.8,0,0,0-.8-0.8H76.2a0.8,0.8,0,0,0-.8.8v3.9a0.8,0.8,0,0,0,.8.8h0.3A0.8,0.8,0,0,0,77.3,44.1Z"></path>
		</symbol>
	</defs>
	<rect width="36" height="36" style="fill: #fff;stroke: rgb(91, 153, 210);stroke-width: 4;" />
	<use href="#oms" width="36" height="36" x="0" y="0" style="fill-rule: evenodd;fill: rgb(91, 153, 210);"/>
</svg>