<?xml version="1.0" standalone="no"?>
<!DOCTYPE svg PUBLIC "-//W3C//DTD SVG 1.1//EN" 
"http://www.w3.org/Graphics/SVG/1.1/DTD/svg11.dtd">

<svg width="36" height="36" version="1.1"
xmlns="http://www.w3.org/2000/svg">
	<defs>
		<symbol id="och" viewBox="0 0 110 110">
			<path d="M10,55A45,45,0,0,1,100,55A45,45,0,0,1,10,55M20,50l12,0,0-8,18,13-18,13,0-8-12,0zM90,50l-12,0,0-8-18,13,18,13,0-8,12,0zM50,47l0-12-8,0,13-18,13,18-8,0,0,12zM50,63l0,12-8,0,13,18,13-18-8,0,0-12z"></path>
		</symbol>
	</defs>
	<rect width="36" height="36" style="fill: #fff;" />
	<use href="#och" width="36" height="36" x="0" y="0" style="fill-rule: evenodd;fill: rgb(91, 153, 210);"/>
</svg>